<svg xmlns="http://www.w3.org/2000/svg" xmlns:xlink="http://www.w3.org/1999/xlink" viewBox="0 0 297.47 343.21"><defs><style>.cls-1{fill:none;}.cls-2{fill:#8d0220;}.cls-3{isolation:isolate;}.cls-4{clip-path:url(#clip-path);}.cls-5{fill:#fff;}.cls-6{fill:#9e0223;}.cls-7{clip-path:url(#clip-path-2);}.cls-8{fill:#620116;}.cls-9{clip-path:url(#clip-path-3);}</style><clipPath id="clip-path"><polygon class="cls-1" points="149.46 172.02 297.47 86.01 296.98 257.2 148.97 343.21 149.46 172.02"/></clipPath><clipPath id="clip-path-2"><polygon class="cls-1" points="0.48 86.01 148.49 0 297.47 86.01 149.46 172.02 0.48 86.01"/></clipPath><clipPath id="clip-path-3"><polygon class="cls-1" points="149.46 172.02 148.97 343.21 0 257.2 0.48 86.01 149.46 172.02"/></clipPath></defs><title>RBH_Cube_Dark</title><g id="Layer_2" data-name="Layer 2"><g id="Layer_2-2" data-name="Layer 2"><polygon class="cls-2" points="149.46 172.02 297.47 86.01 296.98 257.2 148.97 343.21 149.46 172.02"/><g class="cls-3"><g class="cls-4"><path class="cls-5" d="M215.51,255.72l.09-31.55,6.21-3.61c3.21-1.87,5.52-2.31,6.91-1.31s2.08,3.85,2.06,8.55l0,8.95a19,19,0,0,1-1.8,8.88,13.92,13.92,0,0,1-5.46,5.44l-8,4.65m.13-46.22.07-27.15,6.73-3.9c2.45-1.43,4.25-1.65,5.38-.64s1.7,3.35,1.69,7.07v5.72a19.53,19.53,0,0,1-2.12,9.58,16.54,16.54,0,0,1-6.29,6.15l-5.45,3.17m7.22-45.95L201.8,175.79l-.29,102.71,22-12.75a40.72,40.72,0,0,0,21.25-36.67l0-8.81q0-17.31-10.35-15.37v-.3a31.53,31.53,0,0,0,6.8-11.13,42.64,42.64,0,0,0,2.26-14.2v-4.11q0-12-4.9-14.95t-15.71,3.34"/></g></g><polygon class="cls-6" points="0.48 86.01 148.49 0 297.47 86.01 149.46 172.02 0.48 86.01"/><g class="cls-3"><g class="cls-7"><polyline class="cls-5" points="125.73 47.75 111.77 55.86 148.16 76.87 133.19 85.57 96.8 64.56 82.85 72.67 172.23 124.27 186.19 116.16 145.96 92.94 160.93 84.24 201.16 107.47 215.11 99.36 125.73 47.75"/></g></g><polygon class="cls-8" points="149.46 172.02 148.97 343.21 0 257.2 0.48 86.01 149.46 172.02"/><g class="cls-3"><g class="cls-9"><path class="cls-5" d="M67.15,202.89l.09-29.34,6.38,3.68A13.15,13.15,0,0,1,79,182.86a20.39,20.39,0,0,1,1.7,9.07l0,7.92q0,5.86-2.13,7.15c-1.41.84-3.52.46-6.33-1.16l-5.11-3m6.9-40.11-20.82-12-.29,102.71,14,8.11.12-44,4.86,2.8a16.49,16.49,0,0,1,6.82,6.73c1.31,2.61,2,6.28,1.95,11l0,18.78c0,3.82.06,6.51.23,8.07a35.63,35.63,0,0,0,1,5.29l14.3,8.26a28.35,28.35,0,0,1-1.26-6.1q-.25-2.87-.24-7.26l0-18.05a52.25,52.25,0,0,0-2.06-15.74A25.69,25.69,0,0,0,85.52,220v-.3q9.19,1.05,9.25-14.94v-6.31q0-12-4.93-20.7T74.05,162.78"/></g></g></g></g></svg>